<?xml version="1.0" encoding="utf-8"?>
<!-- Generator: Adobe Illustrator 17.0.0, SVG Export Plug-In . SVG Version: 6.00 Build 0)  -->
<!DOCTYPE svg PUBLIC "-//W3C//DTD SVG 1.1//EN" "http://www.w3.org/Graphics/SVG/1.1/DTD/svg11.dtd">
<svg version="1.1" id="Layer_1" xmlns="http://www.w3.org/2000/svg" xmlns:xlink="http://www.w3.org/1999/xlink" x="0px" y="0px"
	 width="512px" height="512px" viewBox="0 0 512 512" enable-background="new 0 0 512 512" xml:space="preserve">
<polygon opacity="0.1" points="335.416,499.339 83.083,450.717 0.402,200.721 170.056,-0.653 422.39,47.968 505.07,297.964 "/>
<polygon fill="#FFFFFF" stroke="#262262" stroke-width="25" stroke-miterlimit="10" points="320.189,339.584 192.326,339.881 
	128.137,229.298 191.811,118.416 319.674,118.119 383.863,228.702 "/>
<line fill="none" stroke="#262262" stroke-width="34" stroke-miterlimit="10" x1="128.137" y1="229.298" x2="0" y2="229"/>
<line fill="none" stroke="#262262" stroke-width="34" stroke-miterlimit="10" x1="512" y1="229.149" x2="383.863" y2="228.851"/>
<line fill="none" stroke="#1C75BC" stroke-width="4" stroke-miterlimit="10" x1="239" y1="112" x2="293" y2="73"/>
<line fill="none" stroke="#1C75BC" stroke-width="4" stroke-miterlimit="10" x1="293" y1="73" x2="342" y2="73"/>
<line fill="none" stroke="#1C75BC" stroke-width="4" stroke-miterlimit="10" x1="342" y1="73" x2="373" y2="52"/>
<line fill="none" stroke="#1C75BC" stroke-width="4" stroke-miterlimit="10" x1="373" y1="52" x2="430" y2="52"/>
<line fill="none" stroke="#1C75BC" stroke-width="4" stroke-miterlimit="10" x1="430" y1="52" x2="468" y2="98"/>
<line fill="none" stroke="#1C75BC" stroke-width="4" stroke-miterlimit="10" x1="468" y1="98" x2="491" y2="98"/>
<line fill="#1C75BC" stroke="#1C75BC" stroke-width="4" stroke-miterlimit="10" x1="342" y1="313" x2="408.419" y2="313"/>
<line fill="#1C75BC" stroke="#1C75BC" stroke-width="4" stroke-miterlimit="10" x1="408.419" y1="313" x2="452.699" y2="355"/>
<line fill="#1C75BC" stroke="#1C75BC" stroke-width="4" stroke-miterlimit="10" x1="452.699" y1="355" x2="479.5" y2="355"/>
<line fill="none" stroke="#1C75BC" stroke-width="4" stroke-miterlimit="10" x1="357.5" y1="160" x2="401.5" y2="160"/>
<line fill="none" stroke="#1C75BC" stroke-width="4" stroke-miterlimit="10" x1="401.5" y1="160" x2="418" y2="143"/>
<line fill="none" stroke="#1C75BC" stroke-width="4" stroke-miterlimit="10" x1="418" y1="143" x2="438" y2="143"/>
<line fill="none" stroke="#1C75BC" stroke-width="4" stroke-miterlimit="10" x1="337" y1="123" x2="375.21" y2="123"/>
<line fill="none" stroke="#1C75BC" stroke-width="4" stroke-miterlimit="10" x1="375.21" y1="123" x2="383.863" y2="143"/>
<line fill="none" stroke="#1C75BC" stroke-width="4" stroke-miterlimit="10" x1="383.863" y1="143" x2="401.5" y2="143"/>
<line fill="none" stroke="#1C75BC" stroke-width="4" stroke-miterlimit="10" x1="401.5" y1="143" x2="428" y2="118.119"/>
<line fill="none" stroke="#1C75BC" stroke-width="4" stroke-miterlimit="10" x1="428" y1="118.119" x2="491" y2="118.119"/>
<line fill="none" stroke="#1C75BC" stroke-width="4" stroke-miterlimit="10" x1="438" y1="143" x2="449" y2="130.559"/>
<line fill="none" stroke="#1C75BC" stroke-width="4" stroke-miterlimit="10" x1="449" y1="130.559" x2="491" y2="130.559"/>
<line fill="none" stroke="#1C75BC" stroke-width="4" stroke-miterlimit="10" x1="491" y1="347.727" x2="479.5" y2="355"/>
<line fill="none" stroke="#1C75BC" stroke-width="4" stroke-miterlimit="10" x1="367" y1="281" x2="430" y2="281"/>
<line fill="none" stroke="#1C75BC" stroke-width="4" stroke-miterlimit="10" x1="430" y1="281" x2="447.931" y2="307"/>
<line fill="none" stroke="#1C75BC" stroke-width="4" stroke-miterlimit="10" x1="447.931" y1="307" x2="470" y2="307"/>
<line fill="none" stroke="#1C75BC" stroke-width="4" stroke-miterlimit="10" x1="470" y1="307" x2="485.25" y2="330"/>
<line fill="none" stroke="#1C75BC" stroke-width="4" stroke-miterlimit="10" x1="485.25" y1="330" x2="491" y2="330"/>
<line fill="none" stroke="#1C75BC" stroke-width="4" stroke-miterlimit="10" x1="374.454" y1="198.5" x2="428.546" y2="197.5"/>
<line fill="none" stroke="#1C75BC" stroke-width="4" stroke-miterlimit="10" x1="429.165" y1="198" x2="468.835" y2="151.5"/>
<line fill="none" stroke="#1C75BC" stroke-width="4" stroke-miterlimit="10" x1="466.56" y1="151.5" x2="491" y2="151.5"/>
<line fill="none" stroke="#1C75BC" stroke-width="4" stroke-miterlimit="10" x1="383.863" y1="255" x2="438" y2="255"/>
<line fill="none" stroke="#1C75BC" stroke-width="4" stroke-miterlimit="10" x1="438" y1="255" x2="468" y2="294"/>
<line fill="none" stroke="#1C75BC" stroke-width="4" stroke-miterlimit="10" x1="158.485" y1="294.125" x2="114.487" y2="294.51"/>
<line fill="none" stroke="#1C75BC" stroke-width="4" stroke-miterlimit="10" x1="114.487" y1="294.51" x2="98.136" y2="311.654"/>
<line fill="none" stroke="#1C75BC" stroke-width="4" stroke-miterlimit="10" x1="98.136" y1="311.654" x2="78.137" y2="311.829"/>
<line fill="none" stroke="#1C75BC" stroke-width="4" stroke-miterlimit="10" x1="179.308" y1="330.944" x2="141.1" y2="331.279"/>
<line fill="none" stroke="#1C75BC" stroke-width="4" stroke-miterlimit="10" x1="141.1" y1="331.279" x2="132.272" y2="311.355"/>
<line fill="none" stroke="#1C75BC" stroke-width="4" stroke-miterlimit="10" x1="132.272" y1="311.355" x2="114.635" y2="311.509"/>
<line fill="none" stroke="#1C75BC" stroke-width="4" stroke-miterlimit="10" x1="114.635" y1="311.509" x2="88.354" y2="336.622"/>
<line fill="none" stroke="#1C75BC" stroke-width="4" stroke-miterlimit="10" x1="88.354" y1="336.622" x2="25.357" y2="337.173"/>
<line fill="none" stroke="#1C75BC" stroke-width="4" stroke-miterlimit="10" x1="78.137" y1="311.829" x2="67.246" y2="324.365"/>
<line fill="none" stroke="#1C75BC" stroke-width="4" stroke-miterlimit="10" x1="67.246" y1="324.365" x2="25.248" y2="324.733"/>
<line fill="none" stroke="#1C75BC" stroke-width="4" stroke-miterlimit="10" x1="131.782" y1="255.357" x2="56.147" y2="256.019"/>
<line fill="none" stroke="#1C75BC" stroke-width="4" stroke-miterlimit="10" x1="56.147" y1="256.019" x2="38.439" y2="303.676"/>
<line fill="none" stroke="#1C75BC" stroke-width="4" stroke-miterlimit="10" x1="38.439" y1="303.676" x2="25.064" y2="303.793"/>
<polygon fill="#FFFFFF" stroke="#262262" stroke-width="25" stroke-miterlimit="10" points="319.189,339.584 191.326,339.881 
	127.137,229.298 190.811,118.416 318.674,118.119 382.863,228.702 "/>
<text transform="matrix(1 0 0 1 164 256.0193)" stroke="#262262" stroke-miterlimit="10" font-family="'Rockwell-Bold'" font-size="97">NID</text>
<g>
	<polygon fill="#27AAE1" points="25.064,364.713 88.136,364.713 136.686,434.362 352,434.362 408.419,364.713 488.125,364.713 
		408.419,489 88.354,489 	"/>
	<g>
		<g>
			<g>
				<path fill="none" stroke="#F5BF61" stroke-width="0.65" d="M25.064,364.41h42h19.963c0.427,0.012,0.88-0.027,1.286,0.027
					l0.743,1.066l1.487,2.133l2.863,4.107l5.718,8.203l11.435,16.405l22.871,32.811l1.79,2.568l0.87,1.248l0.435,0.624l0.217,0.312
					c0.039,0.047,0.067,0.114,0.114,0.146h0.19h6.19h12.679h25.358h50.716H333.42h10.556h5.244h2.534
					c0.123,0.037,0.165-0.096,0.237-0.166l0.199-0.246l0.399-0.492l0.797-0.984l13.262-16.372l26.578-32.811l11.817-14.588
					l3.038-3.75l0.192-0.237l0.304-0.002h0.61h1.22h2.409h9.387h37.548h17.503h9.042h2.261c0.033,0.008,0.125-0.017,0.11,0.017
					l-0.076,0.119l-0.153,0.238l-0.305,0.476l-0.61,0.951l-2.441,3.806l-18.935,29.525l-37.548,58.55l-10.174,15.865l-5.087,7.933
					l-2.548,3.973l-1.323,2.063c-0.484,0.609-0.713,1.684-1.697,1.377h-37.829h-75.389H143.776h-38.788h-9.697h-4.95H89.08h-0.63
					c-0.097-0.013-0.229,0.03-0.297-0.03l-0.143-0.281l-1.144-2.247l-8.835-17.349L42.83,400.267L24.795,364.85"/>
				<path fill="none" stroke="#000000" stroke-width="0.25" d="M25.064,364.41h42h19.963c0.427,0.012,0.88-0.027,1.286,0.027
					l0.743,1.066l1.487,2.133l2.863,4.107l5.718,8.203l11.435,16.405l22.871,32.811l1.79,2.568l0.87,1.248l0.435,0.624l0.217,0.312
					c0.039,0.047,0.067,0.114,0.114,0.146h0.19h6.19h12.679h25.358h50.716H333.42h10.556h5.244h2.534
					c0.123,0.037,0.165-0.096,0.237-0.166l0.199-0.246l0.399-0.492l0.797-0.984l13.262-16.372l26.578-32.811l11.817-14.588
					l3.038-3.75l0.192-0.237l0.304-0.002h0.61h1.22h2.409h9.387h37.548h17.503h9.042h2.261c0.033,0.008,0.125-0.017,0.11,0.017
					l-0.076,0.119l-0.153,0.238l-0.305,0.476l-0.61,0.951l-2.441,3.806l-18.935,29.525l-37.548,58.55l-10.174,15.865l-5.087,7.933
					l-2.548,3.973l-1.323,2.063c-0.484,0.609-0.713,1.684-1.697,1.377h-37.829h-75.389H143.776h-38.788h-9.697h-4.95H89.08h-0.63
					c-0.097-0.013-0.229,0.03-0.297-0.03l-0.143-0.281l-1.144-2.247l-8.835-17.349L42.83,400.267L24.795,364.85"/>
			</g>
			<path stroke="#F7B13C" stroke-width="0.75" d="M127.912,435.008l4.853,6.775c1.446,0.06,2.957-0.014,4.424-0.015l3.936-0.054
				l8.927-0.214l17.854-0.428l35.709-0.857l71.418-1.714l71.418-1.714l5.237-0.107c0.476-0.023,0.98,0.014,1.43-0.059l0.9-1.153
				l1.785-2.288l5.495-7.124l10.906-14.143l21.811-28.287l11.467-14.872l2.826-3.667l0.178-0.23l0.284-0.009l0.571-0.014
				l1.149-0.028l2.328-0.056l9.387-0.225l37.548-0.901l24.349-0.542l7.117-0.136c0.251-0.058,0.04,0.137-0.003,0.24l-0.22,0.359
				l-0.442,0.72l-0.889,1.449l-1.798,2.93l-7.001,11.42l-23.495,38.646l-3.042,0.064l-24.624,40.027l-10.412,16.925l-5.206,8.463
				l-2.925,4.734l-0.857,1.379l-0.43,0.692c-0.08,0.101-0.125,0.264-0.234,0.313l-0.402,0.006l-3.234,0.047l-40.145,0.744
				l-79.473,1.488l-158.945,2.977l158.945-4.404l79.473-2.202l39.712-1.101l2.403-0.069l0.297-0.009
				c0.08-0.038,0.113-0.161,0.171-0.237l0.315-0.522l0.625-1.038l2.526-4.194l5.131-8.511l10.262-17.022l38.19-63.346l9.547-15.836
				l2.345-3.894l1.047-1.87l0.963-1.738l0.45-0.82l0.217-0.398l0.107-0.196c0.008-0.05,0.144-0.17-0.008-0.132l-4.121,0.256
				l-1.946,0.128l-4.621,0.128l-18.485,0.512l1.313-2.558l-33.821,0.458l-7.566,0.115l-0.583,0.014l-0.29,0.007
				c-0.067,0.064-0.122,0.152-0.184,0.227l-0.716,0.929l-2.338,2.977l-10.466,13.284l-22.101,28.052l-11.051,14.026l-5.612,7.12
				l-2.231,2.802l-1.12,1.406c-0.557,0.084-1.181,0.032-1.769,0.055l-6,0.06l-71.418,0.967l-71.418,0.967l-35.709,0.484
				l-17.854,0.242l-8.927,0.121l-3.952,0.03c-1.472-0.007-2.986,0.059-4.432-0.009L127.912,435.008z"/>
		</g>
	</g>
</g>
<line fill="none" x1="106.311" y1="480" x2="375.21" y2="480"/>
<text transform="matrix(1 0 0 1 106.3413 480)"><tspan x="0" y="0" font-family="'Rockwell-Bold'" font-size="31"> </tspan><tspan x="7.757" y="0" font-family="'Rockwell-Bold'" font-size="31"> </tspan><tspan x="15.503" y="0" fill="#262262" font-family="'Rockwell-Bold'" font-size="31">I</tspan><tspan x="28.754" y="0" fill="#262262" font-family="'Rockwell-Bold'" font-size="31">N</tspan><tspan x="53.291" y="0" fill="#262262" font-family="'Rockwell-Bold'" font-size="31">T</tspan><tspan x="74.274" y="0" fill="#262262" font-family="'Rockwell-Bold'" font-size="31">E</tspan><tspan x="94.956" y="0" fill="#262262" font-family="'Rockwell-Bold'" font-size="31">L</tspan><tspan x="114.985" y="0" fill="#262262" font-family="'Rockwell-Bold'" font-size="31">L</tspan><tspan x="135.015" y="0" fill="#262262" font-family="'Rockwell-Bold'" font-size="31">I</tspan><tspan x="148.251" y="0" fill="#262262" font-family="'Rockwell-Bold'" font-size="31">G</tspan><tspan x="174.417" y="0" fill="#262262" font-family="'Rockwell-Bold'" font-size="31">E</tspan><tspan x="195.112" y="0" fill="#262262" font-family="'Rockwell-Bold'" font-size="31">N</tspan><tspan x="219.66" y="0" fill="#262262" font-family="'Rockwell-Bold'" font-size="31">C</tspan><tspan x="243.874" y="0" fill="#262262" font-family="'Rockwell-Bold'" font-size="31">Y</tspan></text>
<line fill="none" x1="47.293" y1="383" x2="88.136" y2="470"/>
<text transform="matrix(0.425 0.9052 -0.9052 0.425 47.3008 383.0166)"><tspan x="0" y="0" fill="#FFFFFF" font-family="'Rockwell-Bold'" font-size="19">N</tspan><tspan x="15.038" y="0.001" fill="#FFFFFF" font-family="'Rockwell-Bold'" font-size="19" rotate="0.001">A</tspan><tspan x="28.319" y="0.001" fill="#FFFFFF" font-family="'Rockwell-Bold'" font-size="19" rotate="0.001">T</tspan><tspan x="41.186" y="0.001" fill="#FFFFFF" font-family="'Rockwell-Bold'" font-size="19" rotate="0.001">U</tspan><tspan x="54.044" y="0.001" fill="#FFFFFF" font-family="'Rockwell-Bold'" font-size="19">R</tspan><tspan x="67.89" y="0.001" fill="#FFFFFF" font-family="'Rockwell-Bold'" font-size="19" rotate="0">A</tspan><tspan x="81.172" y="0.001" fill="#FFFFFF" font-family="'Rockwell-Bold'" font-size="19" rotate="0.001">L</tspan></text>
<line fill="none" x1="396.858" y1="477.5" x2="463.142" y2="375.5"/>
<text transform="matrix(0.5449 -0.8385 0.8385 0.5449 396.8779 477.4668)"><tspan x="0" y="0" fill="#FFFFFF" font-family="'Rockwell-Bold'" font-size="17"> </tspan><tspan x="4.264" y="0" fill="#FFFFFF" font-family="'Rockwell-Bold'" font-size="17" rotate="0.001">D</tspan><tspan x="17.889" y="0" fill="#FFFFFF" font-family="'Rockwell-Bold'" font-size="17">E</tspan><tspan x="29.231" y="0.001" fill="#FFFFFF" font-family="'Rockwell-Bold'" font-size="17" rotate="0">V</tspan><tspan x="41.105" y="0" fill="#FFFFFF" font-family="'Rockwell-Bold'" font-size="17" rotate="0">E</tspan><tspan x="52.443" y="0.002" fill="#FFFFFF" font-family="'Rockwell-Bold'" font-size="17" rotate="0.001">L</tspan><tspan x="63.442" y="0.001" fill="#FFFFFF" font-family="'Rockwell-Bold'" font-size="17" rotate="0.001">O</tspan><tspan x="77.948" y="0" fill="#FFFFFF" font-family="'Rockwell-Bold'" font-size="17">P</tspan><tspan x="89.316" y="0.001" fill="#FFFFFF" font-family="'Rockwell-Bold'" font-size="17" rotate="0.001">E</tspan><tspan x="100.647" y="0.001" fill="#FFFFFF" font-family="'Rockwell-Bold'" font-size="17">R</tspan></text>
<path fill="#1C75BC" d="M495,92c-6.449,0-6.449,10,0,10S501.449,92,495,92z"/>
<path fill="#1C75BC" d="M494,112c-6.449,0-6.449,10,0,10S500.449,112,494,112z"/>
<path fill="#1C75BC" d="M495,125c-6.449,0-6.449,10,0,10S501.449,125,495,125z"/>
<path fill="#1C75BC" d="M495,146c-6.449,0-6.449,10,0,10S501.449,146,495,146z"/>
<path fill="#1C75BC" d="M471,289c-6.449,0-6.449,10,0,10S477.449,289,471,289z"/>
<path fill="#1C75BC" d="M495,325c-6.449,0-6.449,10,0,10S501.449,325,495,325z"/>
<path fill="#1C75BC" d="M494,342c-6.449,0-6.449,10,0,10S500.449,342,494,342z"/>
<path fill="#1C75BC" d="M22,299c-6.449,0-6.449,10,0,10S28.449,299,22,299z"/>
<path fill="#1C75BC" d="M22,318c-6.449,0-6.449,10,0,10S28.449,318,22,318z"/>
<path fill="#1C75BC" d="M23,331c-6.449,0-6.449,10,0,10S29.449,331,23,331z"/>
</svg>
